# xmcd CD database file
#
# Track frame offsets:
#	150
#	12960
#	22242
#	33302
#	47147
#	57862
#	69515
#	80882
#	92150
#	110702
#	120475
#	132807
#	144467
#
# Disc length: 2118 seconds
#
# Revision: 0
# Processed by: cddbd v1.5.2PL0 Copyright (c) Steve Scherf et al.
# Submitted via: CDex 1.51
#
DISCID=b608440d
DTITLE=Various Artist - Country Classics Disc 1
DYEAR=1900
DGENRE=Country
TTITLE0=Boxcar Willie/Hobo Heaven
TTITLE1=Bellamy Brothers/Let Your Love Flow
TTITLE2=Waylon Jennings/Dream Baby
TTITLE3=Willie Nelson/Home Is Where Youre Happy
TTITLE4=Dolly Parton/It Wasnt God That Honky Tonk Angels
TTITLE5=Jeanny C Riley/Total Woman
TTITLE6=Tammy Wynette/Stand By Your Man
TTITLE7=Conway Twitty/Angel Wing
TTITLE8=Nitty Gritty Dirt Band/Mr. Boangles
TTITLE9=Leroy Van Dyke/The Auctioneer
TTITLE10=Willie Nelson/Shelter Of My Arms
TTITLE11=Dolly Parton/Makin Believe
TTITLE12=Freddie Fender/Jambalaya
EXTD=
EXTT0=
EXTT1=
EXTT2=
EXTT3=
EXTT4=
EXTT5=
EXTT6=
EXTT7=
EXTT8=
EXTT9=
EXTT10=
EXTT11=
EXTT12=
PLAYORDER=
